<svg width="24" height="25" id="svg" version="1.1" xmlns="http://www.w3.org/2000/svg" viewBox="0 0 200 200" style="display: block;"><path d="M0 0 C66 0 132 0 200 0 C200 66 200 132 200 200 C134 200 68 200 0 200 C0 134 0 68 0 0 Z " transform="translate(0,0)" style="fill: #000000;"/><path d="M0 0 C3.32639526 2.32847668 4.63882273 3.73587957 5.75 7.625 C7.30834847 10.5858621 8.20671848 10.66929486 11.3125 11.6875 C12.87342111 12.13060019 14.435831 12.5685051 16 13 C17.67363977 13.64896236 19.34461042 14.30580437 21 15 C21 15.66 21 16.32 21 17 C21.721875 17.2475 22.44375 17.495 23.1875 17.75 C28.5038929 20.11284129 31.78361515 23.69706121 35.125 28.375 C35.78757812 29.29023437 36.45015625 30.20546875 37.1328125 31.1484375 C46.62798403 45.64943168 45.49436163 62.53473651 45.625 79.1875 C45.6615683 82.55779833 45.70212581 85.92798278 45.74765015 89.298172 C45.77476133 91.38150779 45.79616223 93.46492761 45.81118774 95.54838562 C45.82658096 96.95178947 45.82658096 96.95178947 45.84228516 98.38354492 C45.84878082 99.20513596 45.85527649 100.02672699 45.86196899 100.87321472 C45.92180689 103.18895801 45.92180689 103.18895801 47 106 C50.21180301 107.9117875 53.13292931 109.03544782 56.75 110 C60 111 60 111 62 114 C61.62068453 117.03452373 60.74959319 118.37561021 59 121 C56.71361542 121.37752342 56.71361542 121.37752342 53.79968262 121.38095093 C52.69756943 121.3894104 51.59545624 121.39786987 50.45994568 121.40658569 C49.24533157 121.400513 48.03071747 121.39444031 46.77929688 121.38818359 C44.86710106 121.39606903 44.86710106 121.39606903 42.91627502 121.40411377 C39.41421819 121.4178191 35.91242575 121.41247566 32.41036415 121.40297651 C28.75041603 121.39539646 25.09049098 121.4024209 21.43054199 121.40713501 C15.28356855 121.41259742 9.13670314 121.40538831 2.98974609 121.39111328 C-4.12330612 121.37478576 -11.2361004 121.38007393 -18.34914637 121.3965925 C-24.44940227 121.41019363 -30.54958039 121.41213378 -36.64984655 121.40427649 C-40.29627557 121.39959237 -43.94258323 121.39899524 -47.58900452 121.40888596 C-51.65259145 121.41913771 -55.71573167 121.40494076 -59.77929688 121.38818359 C-60.99391098 121.39425629 -62.20852509 121.40032898 -63.45994568 121.40658569 C-64.56205887 121.39812622 -65.66417206 121.38966675 -66.79968262 121.38095093 C-68.24207935 121.37925431 -68.24207935 121.37925431 -69.71361542 121.37752342 C-70.46812233 121.25294069 -71.22262924 121.12835796 -72 121 C-74 118 -74 118 -73.8125 114.9375 C-73 112 -73 112 -70 110 C-67.73333994 109.2896156 -65.45410407 108.67549056 -63.15625 108.07421875 C-60.04740779 106.5254296 -59.43288867 105.19683097 -58 102 C-57.55865138 98.42940337 -57.58291386 94.87930429 -57.59375 91.28515625 C-57.58291382 90.23782822 -57.57207764 89.19050018 -57.56091309 88.11143494 C-57.52668525 84.7617278 -57.51108347 81.41235877 -57.5 78.0625 C-57.37814048 41.75631056 -57.37814048 41.75631056 -49 31 C-48.4225 30.18917969 -47.845 29.37835938 -47.25 28.54296875 C-41.48433171 20.78953982 -34.10976024 14.51968009 -25 11 C-21.625 10.8125 -21.625 10.8125 -19 11 C-18.95875 10.113125 -18.9175 9.22625 -18.875 8.3125 C-17.96631087 4.87246259 -16.95030464 3.06903842 -14.078125 0.921875 C-9.57249311 -1.07686396 -4.7746766 -0.83707514 0 0 Z " transform="translate(106,34)" style="fill: #C94DC7;"/><path d="M0 0 C0.77943466 0.00222061 1.55886932 0.00444122 2.36192322 0.00672913 C3.68317955 0.00684242 3.68317955 0.00684242 5.03112793 0.00695801 C5.98841293 0.01211929 6.94569794 0.01728058 7.93199158 0.02259827 C9.39480812 0.02472069 9.39480812 0.02472069 10.88717651 0.02688599 C14.01542675 0.03250319 17.14360656 0.04505859 20.27183533 0.05775452 C22.38706867 0.0627673 24.50230313 0.06733059 26.61753845 0.07142639 C31.81482829 0.0824782 37.01207678 0.09923305 42.20933533 0.12025452 C43.30308533 2.40150452 43.30308533 2.40150452 44.20933533 5.12025452 C41.40285664 11.66870478 37.3108905 15.24639827 31.20933533 18.93275452 C24.11041706 21.67766958 15.03686161 21.28248821 8.08433533 18.37025452 C4.94635232 16.72237517 2.39223997 14.96752144 0.20933533 12.12025452 C0.20933533 11.46025452 0.20933533 10.80025452 0.20933533 10.12025452 C-0.45066467 10.12025452 -1.11066467 10.12025452 -1.79066467 10.12025452 C-3.37604786 7.60229299 -3.82803027 6.44159866 -3.47816467 3.43275452 C-2.50768293 0.16840685 -2.50768293 0.16840685 0 0 Z " transform="translate(79.79066467285156,166.87974548339844)" style="fill: #9345DE;"/><path d="M0 0 C9.33616359 0.69156767 17.06652387 4.17092757 25 9 C25 9.66 25 10.32 25 11 C25.5775 11.0825 26.155 11.165 26.75 11.25 C29.6539336 12.21797787 31.03740604 13.68694284 33 16 C33 16.66 33 17.32 33 18 C33.99 18.33 34.98 18.66 36 19 C44.40754083 28.65599236 48.21399526 39.37427978 48 52 C45.525 52.495 45.525 52.495 43 53 C42.5625 51.6875 42.125 50.375 41.6875 49.0625 C41.41292969 48.24265625 41.13835937 47.4228125 40.85546875 46.578125 C40.30692844 44.92498981 39.76706291 43.2689359 39.23828125 41.609375 C37.81341936 37.17647134 36.12632232 33.15599362 34 29 C33.855625 28.2575 33.71125 27.515 33.5625 26.75 C33.16879995 24.82966135 33.16879995 24.82966135 31.25 24.0625 C30.13625 23.5365625 30.13625 23.5365625 29 23 C27.33333333 21.33333333 25.66666667 19.66666667 24 18 C18.61502854 13.47844168 13.37875385 10.34566582 6.59765625 8.26171875 C5.78167969 8.01035156 4.96570313 7.75898438 4.125 7.5 C3.36445313 7.2834375 2.60390625 7.066875 1.8203125 6.84375 C1.21960938 6.5653125 0.61890625 6.286875 0 6 C-1 3 -1 3 0 0 Z " transform="translate(137,12)" style="fill: #ED61B5;"/><path d="M0 0 C1.125 4.75 1.125 4.75 0 7 C-2.0390625 7.78125 -2.0390625 7.78125 -4.625 8.5 C-5.5221875 8.75394531 -6.419375 9.00789063 -7.34375 9.26953125 C-8.2203125 9.51058594 -9.096875 9.75164063 -10 10 C-11.37533113 10.39468129 -12.75038642 10.79032681 -14.125 11.1875 C-15.548125 11.5896875 -15.548125 11.5896875 -17 12 C-17 12.66 -17 13.32 -17 14 C-18.828125 15.33203125 -18.828125 15.33203125 -21.25 16.8125 C-24.93799815 19.16888186 -27.38973276 21.45003656 -30 25 C-30.66 25 -31.32 25 -32 25 C-32.11730469 25.58136719 -32.23460937 26.16273437 -32.35546875 26.76171875 C-33.037253 29.1293695 -33.9924274 30.74043559 -35.3125 32.8125 C-38.93281983 39.08491458 -40.35184992 46.01147534 -42 53 C-43.65 52.67 -45.3 52.34 -47 52 C-47.48968267 38.28888521 -41.96021787 27.39183314 -33.7109375 16.64453125 C-31.77846093 14.78705948 -30.54018133 14.61628872 -28 14 C-27.67 13.01 -27.34 12.02 -27 11 C-19.83075527 5.49907008 -9.22211711 -0.57113294 0 0 Z " transform="translate(62,12)" style="fill: #A843D6;"/><path d="M0 0 C7.5186195 -0.53704425 13.86471143 2.9469801 20 7 C23.12566013 9.72776168 25.60864236 12.61828213 28 16 C28.42796875 16.598125 28.8559375 17.19625 29.296875 17.8125 C32.85143091 23.37615273 34 29.50112004 34 36 C31.03 36.495 31.03 36.495 28 37 C27.74347656 36.03320312 27.48695313 35.06640625 27.22265625 34.0703125 C24.41203163 24.23629002 20.71212947 16.45441319 11.8515625 10.57421875 C8.80723667 8.97040725 5.87155265 7.9626335 2.5625 7 C0 6 0 6 -0.9375 4 C-1 2 -1 2 0 0 Z " transform="translate(134,30)" style="fill: #E54BBC;"/><path d="M0 0 C0 1.98 0 3.96 0 6 C-1.155 6.391875 -2.31 6.78375 -3.5 7.1875 C-12.0077345 10.43781406 -18.96341816 15.26524932 -24 23 C-25.24997645 26.43743524 -26.20669724 29.80911437 -27.015625 33.375 C-28 36 -28 36 -29.984375 36.9375 C-32 37 -32 37 -34 36 C-33.24291519 24.26518548 -29.4849091 16.05424008 -20.875 7.9375 C-14.80398654 2.90267702 -7.94142674 -0.39648827 0 0 Z " transform="translate(66,30)" style="fill: #AA42D5;"/></svg>